<?xml version="1.0" encoding="UTF-8"?><svg id="Layer_2" xmlns="http://www.w3.org/2000/svg" viewBox="0 0 401.18 389.7"><g id="Layer_1-2"><g><path d="M401.12,336.19l-.04-.7c-.03-.31-.05-.62-.07-.93-.04-.66-.08-1.32-.19-1.91l-1.36-7.94c-.48-2.6-.97-5.21-1.48-7.82l-1.6-8.24c-.82-4.23-1.65-8.49-2.48-12.79-5.66-28.5-12.29-58.08-19.7-87.93-3.91-15.84-8.08-32.03-11.69-45.98-.92-3.44-1.82-6.9-2.72-10.39-3.13-12.1-6.37-24.61-10.95-36.96-3.4-9.12-7.09-16.74-11.28-23.31-2.21-3.39-4.84-7.29-8-10.63l-2.2-2.48c-.54-.59-1.12-1.13-1.7-1.67l-3.15-2.97c-.56-.54-1.17-1.02-1.79-1.49-.29-.22-.58-.45-.87-.69-6.73-5.43-14.61-9.9-23.41-13.27-7.67-2.95-16.15-5.16-25.92-6.77-7.68-1.25-16.09-2.11-26.47-2.71-2.82-.16-5.64-.3-8.45-.43-.29-1.83-.66-3.77-1.1-5.78-1.14-4.97-2.63-10.05-4.45-15.1-.86-2.37-2.04-5.55-3.6-9.04-1.39-3.06-3.21-6.63-6.19-9.92-1.49-1.69-3.32-3.2-5.3-4.37-1.91-1.11-4.09-1.98-6.48-2.58-4.16-1.03-8.27-1.16-12.25-1.28l-.75-.02c-4.32-.12-8.75-.09-13.15,.11-4.56,.22-9.43,.56-14.35,2.09-2.89,.93-5.32,2.14-7.42,3.69-2.37,1.77-4.45,4.26-5.69,6.81-1.17,2.32-1.87,4.56-2.55,6.74l-.18,.58c-.69,2.27-1.38,4.53-2.1,6.83l-.31,1.06c-1.26,4.26-2.52,8.53-3.69,12.86-.44,1.62-.78,3.17-1.11,4.69-.18,.82-.35,1.63-.54,2.44l-.37,1.5c-12.77,1.69-24.26,4.13-35.1,7.43l-3.41,1.03-3.32,1.17c-.78,.28-1.56,.55-2.34,.82-1.44,.5-2.88,1-4.31,1.58l-2.95,1.22c-3.31,1.36-6.74,2.77-10.04,4.46-10.11,5.04-17.82,10.82-23.57,17.64-5.69,6.7-9.93,15.11-13.33,26.47-2.2,7.34-3.78,14.78-5.31,21.99-.4,1.89-.8,3.78-1.21,5.67l-15.58,72.82c-6.6,31.22-13.25,62.64-19.94,94.17l-1.48,7.1c-.5,2.33-.99,4.65-1.4,7.18-.87,5.5-.93,10.77-.18,15.66,.81,5.26,2.75,10.43,5.61,14.94,2.58,4.17,6.09,7.94,10.72,11.53,9.17,7.06,19.89,10.72,27.17,12.85,4.63,1.32,9.48,2.43,14.39,3.27,2.5,.44,4.95,.81,7.3,1.08,.77,.08,1.54,.15,2.31,.22h.23c.81,.16,1.62,.31,2.42,.47,1.21,.23,2.43,.46,3.65,.66l14.37,2.17c30.68,4.26,58.74,5.53,79.76,6.17,11.26,.33,22.75,.45,34.1,.39,4.62,.05,9.25,.08,13.89,.08,28.13,0,56.68-1.02,85.06-3.04l36.32-3.24c7.45-.95,13.53-2.02,19.11-3.36,7.34-1.73,13.65-3.87,19.33-6.55,7.61-3.65,13.31-7.98,17.43-13.21,4.86-6.02,7.58-14,7.47-21.78,.05-.79,0-1.56-.04-2.33ZM9.43,321.66c.39-2.16,.89-4.47,1.41-6.84l25.72-118.66,11.82-55.22c.45-2.02,.88-4.05,1.31-6.06,1.55-7.27,3.02-14.14,5.03-20.87,3-10.05,6.65-17.38,11.47-23.08,4.9-5.82,11.62-10.81,20.55-15.27,2.99-1.54,6.19-2.85,9.28-4.13l2.97-1.23c1.24-.5,2.5-.94,3.76-1.37,.85-.29,1.7-.59,2.52-.89l3.12-1.09,3.23-.97c15.35-4.73,32.52-7.67,52.49-8.99,8.84-.57,17.59-.78,26-.78,9.58,0,18.72,.27,27.03,.58,2.57,.12,5.13,.22,7.7,.33,2.54,.11,5.08,.21,7.61,.33,.14,.1,.36,.22,.66,.28l.88,.08,.5-.15c.1-.04,.18-.07,.24-.1,12.88,.6,23.65,1.35,34.22,3.05,9.08,1.47,16.95,3.51,24.07,6.24,7.87,3.01,14.9,6.98,20.91,11.81l.78,.62c.51,.39,1.02,.79,1.49,1.23l2.98,2.8c.45,.42,.9,.83,1.31,1.29l2.05,2.29c2.82,2.97,5.14,6.42,7.09,9.42,3.87,6.07,7.27,13.11,10.42,21.54,4.44,11.92,7.68,24.47,10.82,36.61,.85,3.29,1.7,6.57,2.57,9.83,4.87,18.71,8.48,32.85,11.71,45.85,7.35,29.53,13.96,58.97,19.65,87.5l5.51,28.48,1.35,7.77c.09,.47,.11,.94,.14,1.41,.02,.28,.04,.57,.06,.79l.03,.52c.04,.57,.08,1.14,.04,1.81,.08,5.99-1.8,11.59-5.44,16.19h0c-3.22,4.14-7.86,7.62-14.17,10.66-5.03,2.39-10.75,4.34-17.49,5.96-5.38,1.3-11.14,2.32-18.16,3.21-4.96,.65-10,1.11-14.87,1.55l-3.24,.3c-4.05,.39-8.09,.71-12.07,1.02l-5.63,.45c-12.21,.91-24.39,1.65-36.2,2.19-27.98,1.3-56.42,1.69-84.56,1.13-14.4-.25-28.86-.78-45.51-1.66-3.55-.24-7.16-.51-10.8-.83-14.53-1.2-28.7-2.87-42.14-4.98l-5.93-.95c-1.19-.2-2.37-.42-3.56-.65l-2.37-.44c-2-.4-4.01-.77-5.95-1.13l-1-.22c-1.67-.38-3.34-.75-5.02-1.12-7.13-1.53-15.48-3.53-23.37-6.79-8.28-3.38-14.71-7.81-19.14-13.2-.3-.36-.58-.74-.97-1.27l-.27-.38c-.25-.35-.51-.7-.73-1.08-2.22-3.69-3.65-7.66-4.25-11.8-.56-4.04-.44-8.38,.34-12.92ZM217.56,47.35c-15.96-.6-34.87-1.04-54.04,.18-4.01,.27-7.78,.59-11.45,.97,.34-.98,.65-1.95,.95-2.91,.26-.82,.51-1.62,.78-2.41,1.49-4.6,2.97-9.18,4.44-13.75,.71-2.28,1.4-4.58,2.08-6.84,.61-2.04,1.28-4.18,2.16-5.95,.74-1.5,1.73-2.69,3.18-3.83,1.26-.95,2.85-1.73,4.87-2.39,3.58-1.14,7.45-1.53,12.15-1.76,2.91-.13,5.88-.2,8.86-.2,1.22,0,2.45,.01,3.67,.03,3.89,.11,7.91,.23,11.23,1.05,3.12,.72,5.61,2.15,7.59,4.38,2.21,2.41,3.76,5.42,4.85,7.77,1.34,2.9,2.49,5.77,3.56,8.45,2.1,5.42,3.67,10.2,4.93,14.16l.57,1.84c.18,.58,.35,1.14,.52,1.68-3.63-.16-7.26-.32-10.9-.47Z"/><path d="M150.39,194.63c3.45-.14,6.63-1.9,9.36-4.9v.06c0,18.32,16.45,33.21,36.68,33.21s36.09-14.37,36.68-32.23c.95,.21,1.91,.32,2.89,.27,11.2-.47,19.6-18.03,18.74-39.21-.87-21.17-10.66-37.95-21.88-37.47-6.94,.3-12.8,7.15-16.07,17.34l13.58,12.18-16.15,11.7c.12,1.87,.32,3.69,.59,5.49-5.41-2.85-11.7-4.49-18.39-4.49-11.19,0-21.21,4.57-27.94,11.73,.59-4.04,.81-8.37,.63-12.88-.84-21.17-10.66-37.95-21.86-37.46-6.95,.29-12.82,7.13-16.06,17.32l13.55,12.2-16.13,11.68c1.37,20.22,10.9,35.93,21.76,35.46Zm46.04-33.89c17.94,0,32.54,13.04,32.54,29.05s-14.59,29.05-32.54,29.05-32.52-13.04-32.52-29.05,14.59-29.05,32.52-29.05Z"/><path d="M159.04,321.04v.02c12.1,4.01,28.74,4.51,36.3,4.51,2.31,0,3.77-.05,4-.05,24.6-.53,58.39-6.18,79.68-30.09,10.93-12.28,15.74-28.54,12.54-42.44-2.1-9.15-7.85-16.9-16.18-21.82-8.74-5.16-19.23-6.55-28.8-3.81-6.1,1.74-11.62,4.81-16.95,7.78-5.75,3.2-11.7,6.51-18.27,8.04-11.03,2.57-22.79,1.85-33.11-2.01-4.55-1.7-9.03-3.9-13.36-6.02-5.93-2.91-12.05-5.92-18.6-7.79-9.57-2.74-20.07-1.35-28.8,3.81-8.33,4.92-14.08,12.67-16.18,21.82-3.2,13.91,1.61,30.17,12.54,42.44,10.79,12.11,25.99,20.73,45.19,25.61Zm-7.74-25.25c1.33-7.42,12.67-10.19,16.12-10.85,2.12-.41,4.44-.66,6.79-.66,6.81,0,13.93,2.04,17.37,7.95,.93,1.59,1.85,3.23,2.72,4.82l1.07,1.95,1.3-1.8c.84-1.16,1.46-2.39,2.07-3.58,.66-1.29,1.28-2.51,2.13-3.57,.29-.37,.61-.71,.96-1.04,.34-.3,.7-.59,1.06-.85,8.06-5.77,19.83-4.62,27.91-.92,3.81,1.74,7.98,5.11,8.69,8.71,.39,1.98-.26,3.85-2,5.71-6.64,7.12-17.29,9.87-26.83,11.62-11.93,2.18-23.66,1.8-35.85-1.15-7.43-1.8-15.79-4.45-21.4-10.47-1.21-1.3-2.56-3.38-2.11-5.88Z"/><path d="M148.27,90.48c.24,.13,.75,.37,1.46,.37,.87,0,2.02-.35,3.29-1.66,5.31-5.49,12.22-6.84,18.49-3.59,.7,.36,1.65,.76,2.69,.68,1.15-.09,2.06-.69,2.56-1.7,.63-1.26,.5-3.05-.33-4.35-2.16-3.4-5.13-4.8-7.47-5.63-1.14-.41-2.29-.57-3.13-.69-.29-.04-.55-.08-.77-.12l-.16-.03h-.16c-6.46,.26-11.74,2.96-16.13,8.26-.72,.87-1.51,1.94-1.85,3.27-.6,2.3,0,4.34,1.51,5.2Z"/><path d="M216.62,86.27c1.07,.07,1.99-.32,2.69-.68,6.27-3.24,13.18-1.9,18.5,3.59,1.27,1.31,2.42,1.66,3.29,1.66,.71,0,1.22-.23,1.46-.37,1.52-.85,2.11-2.89,1.51-5.2-.34-1.32-1.13-2.39-1.85-3.26-4.39-5.3-9.67-8-16.13-8.25h-.16s-.16,.02-.16,.02c-.22,.04-.48,.08-.77,.12-.84,.12-2,.28-3.14,.69-2.34,.84-5.3,2.23-7.47,5.63-.82,1.3-.96,3.08-.33,4.35,.5,1,1.41,1.61,2.56,1.7Z"/></g></g></svg>