<?xml version="1.0" encoding="UTF-8"?><svg id="Layer_2" xmlns="http://www.w3.org/2000/svg" viewBox="0 0 401.68 390.2"><defs><style>.cls-1{fill:#fff;}</style></defs><g id="Layer_1-2"><g><g><path class="cls-1" d="M228.19,46.39c.19,.58,.36,1.14,.53,1.68-3.63-.16-7.26-.32-10.91-.47-15.96-.6-34.86-1.04-54.04,.18-4.01,.27-7.78,.59-11.45,.97,.34-.98,.65-1.95,.95-2.91,.26-.82,.51-1.62,.78-2.41,1.5-4.6,2.98-9.18,4.44-13.75,.71-2.28,1.41-4.57,2.09-6.84,.61-2.04,1.28-4.18,2.16-5.95,.74-1.5,1.73-2.69,3.17-3.83,1.26-.94,2.86-1.73,4.87-2.39,3.59-1.14,7.46-1.53,12.16-1.76,2.91-.13,5.88-.2,8.85-.2,1.23,0,2.45,.01,3.68,.04,3.89,.11,7.91,.23,11.23,1.05,3.12,.72,5.6,2.15,7.59,4.37,2.21,2.41,3.76,5.42,4.85,7.77,1.34,2.89,2.49,5.77,3.56,8.45,2.1,5.42,3.67,10.2,4.93,14.16l.56,1.84Z"/><path class="cls-1" d="M392.16,336.84c.04,.57,.07,1.14,.04,1.8,.08,5.99-1.8,11.59-5.44,16.19h-.01c-3.22,4.14-7.86,7.63-14.17,10.66-5.03,2.39-10.75,4.34-17.48,5.96-5.38,1.3-11.15,2.32-18.16,3.22-4.96,.65-10,1.11-14.87,1.55l-3.25,.3c-4.05,.39-8.09,.7-12.07,1.02l-5.63,.45c-12.21,.91-24.39,1.65-36.2,2.19-27.98,1.3-56.43,1.68-84.57,1.13-14.4-.26-28.86-.79-45.5-1.66-3.55-.24-7.16-.51-10.81-.83-14.52-1.19-28.7-2.87-42.14-4.98l-5.93-.94c-1.19-.2-2.37-.43-3.56-.65l-2.37-.45c-1.99-.39-4.01-.77-5.95-1.12l-.99-.22c-1.68-.38-3.34-.76-5.02-1.13-7.13-1.52-15.48-3.52-23.37-6.78-8.28-3.38-14.72-7.82-19.15-13.2-.3-.36-.58-.74-.97-1.27l-.27-.38c-.25-.35-.51-.7-.73-1.07-2.22-3.69-3.65-7.66-4.25-11.8-.55-4.04-.44-8.39,.34-12.92,.39-2.16,.89-4.47,1.41-6.84l25.72-118.66,11.82-55.22c.45-2.02,.88-4.04,1.31-6.06,1.55-7.27,3.02-14.14,5.03-20.87,3-10.05,6.64-17.38,11.47-23.08,4.9-5.82,11.62-10.81,20.56-15.27,2.99-1.54,6.19-2.86,9.28-4.13l2.96-1.23c1.24-.5,2.5-.94,3.76-1.38,.86-.29,1.71-.59,2.53-.89l3.12-1.1,3.23-.96c15.35-4.73,32.53-7.67,52.5-8.99,8.84-.57,17.59-.78,26-.78,9.58,0,18.72,.27,27.03,.59,2.57,.11,5.14,.22,7.7,.32,2.55,.11,5.08,.22,7.61,.33,.15,.1,.37,.22,.66,.28l.88,.08,.5-.15c.1-.04,.18-.07,.24-.1,12.88,.59,23.65,1.35,34.22,3.05,9.08,1.46,16.95,3.51,24.07,6.24,7.87,3.01,14.9,6.98,20.91,11.81l.78,.62c.51,.39,1.03,.79,1.5,1.23l2.97,2.8c.45,.41,.9,.83,1.31,1.29l2.05,2.29c2.81,2.97,5.14,6.42,7.08,9.42,3.87,6.07,7.28,13.11,10.43,21.54,4.44,11.92,7.68,24.47,10.82,36.6,.85,3.29,1.7,6.58,2.57,9.83,4.87,18.72,8.48,32.86,11.71,45.85,7.35,29.53,13.96,58.97,19.64,87.5l5.52,28.48,1.34,7.77c.09,.47,.12,.94,.15,1.41,.02,.28,.03,.57,.06,.79l.03,.52Z"/><path d="M401.4,338.77c.12,7.78-2.6,15.76-7.46,21.78-4.12,5.23-9.83,9.56-17.43,13.21-5.68,2.68-11.99,4.82-19.33,6.55-5.58,1.34-11.66,2.41-19.11,3.36l-36.32,3.24c-28.37,2.02-56.92,3.04-85.06,3.04-4.64,0-9.27-.03-13.89-.08-11.34,.06-22.83-.07-34.09-.4-21.02-.63-49.07-1.9-79.76-6.16l-14.37-2.18c-1.23-.2-2.44-.43-3.66-.66-.8-.16-1.61-.31-2.42-.46h-.23c-.77-.07-1.54-.14-2.31-.23-2.35-.27-4.8-.64-7.3-1.08-4.92-.85-9.76-1.95-14.39-3.27-7.28-2.14-18-5.79-27.17-12.86-4.64-3.58-8.15-7.35-10.73-11.53-2.85-4.51-4.79-9.68-5.6-14.93-.75-4.89-.69-10.16,.18-15.66,.41-2.54,.9-4.86,1.4-7.19l1.48-7.1c6.69-31.53,13.33-62.95,19.93-94.17l15.59-72.82c.41-1.89,.81-3.78,1.21-5.67,1.53-7.2,3.11-14.65,5.31-21.99,3.41-11.35,7.64-19.77,13.34-26.46,5.75-6.83,13.46-12.6,23.56-17.64,3.3-1.69,6.73-3.1,10.04-4.46l2.95-1.22c1.43-.58,2.87-1.08,4.31-1.58,.78-.27,1.57-.54,2.34-.82l3.32-1.17,3.41-1.03c10.84-3.31,22.33-5.74,35.1-7.43l.36-1.5c.2-.81,.37-1.62,.55-2.44,.33-1.53,.67-3.08,1.11-4.7,1.17-4.32,2.43-8.59,3.69-12.85l.31-1.06c.72-2.29,1.41-4.55,2.1-6.82l.18-.58c.68-2.17,1.38-4.42,2.55-6.74,1.24-2.54,3.32-5.03,5.69-6.8,2.1-1.56,4.52-2.76,7.42-3.7,4.93-1.52,9.79-1.86,14.35-2.08,4.4-.2,8.83-.23,13.15-.11l.75,.03c3.98,.12,8.1,.25,12.26,1.28,2.38,.6,4.56,1.46,6.47,2.57,1.98,1.18,3.81,2.69,5.31,4.37,2.98,3.29,4.8,6.87,6.19,9.93,1.56,3.49,2.75,6.67,3.6,9.04,1.82,5.06,3.32,10.14,4.45,15.1,.44,2.02,.81,3.96,1.1,5.79,2.82,.13,5.64,.27,8.46,.43,10.38,.6,18.79,1.46,26.46,2.71,9.78,1.61,18.26,3.82,25.93,6.77,8.8,3.37,16.68,7.84,23.41,13.27,.29,.24,.58,.46,.87,.69,.61,.47,1.23,.95,1.79,1.49l3.15,2.97c.58,.54,1.16,1.08,1.7,1.67l2.2,2.48c3.16,3.33,5.79,7.23,8,10.63,4.19,6.57,7.88,14.19,11.28,23.31,4.59,12.35,7.82,24.86,10.95,36.96,.9,3.48,1.8,6.95,2.72,10.39,3.61,13.94,7.78,30.13,11.69,45.97,7.41,29.85,14.04,59.44,19.7,87.93,.83,4.3,1.66,8.56,2.48,12.79l1.6,8.24c.51,2.61,1,5.22,1.48,7.82l1.36,7.94c.11,.6,.15,1.26,.2,1.92,.02,.31,.03,.62,.07,.93l.04,.7c.04,.77,.08,1.54,.03,2.33ZM235,57.8c-.06,.03-.14,.06-.24,.1l-.5,.15-.88-.08c-.29-.06-.51-.18-.66-.28-2.53-.11-5.06-.22-7.61-.33-2.56-.1-5.13-.21-7.7-.32-8.31-.32-17.45-.59-27.03-.59-8.41,0-17.16,.21-26,.78-19.97,1.32-37.15,4.26-52.5,8.99l-3.23,.96-3.12,1.1c-.82,.3-1.67,.6-2.53,.89-1.26,.44-2.52,.88-3.76,1.38l-2.96,1.23c-3.09,1.27-6.29,2.59-9.28,4.13-8.94,4.46-15.66,9.45-20.56,15.27-4.83,5.7-8.47,13.03-11.47,23.08-2.01,6.73-3.48,13.6-5.03,20.87-.43,2.02-.86,4.04-1.31,6.06l-11.82,55.22-25.72,118.66c-.52,2.37-1.02,4.68-1.41,6.84-.78,4.53-.89,8.88-.34,12.92,.6,4.14,2.03,8.11,4.25,11.8,.22,.37,.48,.72,.73,1.07l.27,.38c.39,.53,.67,.91,.97,1.27,4.43,5.38,10.87,9.82,19.15,13.2,7.89,3.26,16.24,5.26,23.37,6.78,1.68,.37,3.34,.75,5.02,1.13l.99,.22c1.94,.35,3.96,.73,5.95,1.12l2.37,.45c1.19,.22,2.37,.45,3.56,.65l5.93,.94c13.44,2.11,27.62,3.79,42.14,4.98,3.65,.32,7.26,.59,10.81,.83,16.64,.87,31.1,1.4,45.5,1.66,28.14,.55,56.59,.17,84.57-1.13,11.81-.54,23.99-1.28,36.2-2.19l5.63-.45c3.98-.32,8.02-.63,12.07-1.02l3.25-.3c4.87-.44,9.91-.9,14.87-1.55,7.01-.9,12.78-1.92,18.16-3.22,6.73-1.62,12.45-3.57,17.48-5.96,6.31-3.03,10.95-6.52,14.17-10.65h.01c3.64-4.61,5.52-10.21,5.44-16.2,.03-.66,0-1.23-.04-1.8l-.03-.52c-.03-.22-.04-.51-.06-.79-.03-.47-.06-.94-.15-1.41l-1.34-7.77-5.52-28.48c-5.68-28.53-12.29-57.97-19.64-87.5-3.23-12.99-6.84-27.13-11.71-45.85-.87-3.25-1.72-6.54-2.57-9.83-3.14-12.13-6.38-24.68-10.82-36.6-3.15-8.43-6.56-15.47-10.43-21.54-1.94-3-4.27-6.45-7.08-9.42l-2.05-2.29c-.41-.46-.86-.88-1.31-1.29l-2.97-2.8c-.47-.44-.99-.84-1.5-1.23l-.78-.62c-6.01-4.83-13.04-8.8-20.91-11.81-7.12-2.73-14.99-4.78-24.07-6.24-10.57-1.7-21.34-2.46-34.22-3.05Zm-6.28-9.73c-.17-.54-.34-1.1-.53-1.68l-.56-1.84c-1.26-3.96-2.83-8.74-4.93-14.16-1.07-2.68-2.22-5.56-3.56-8.45-1.09-2.35-2.64-5.36-4.85-7.77-1.99-2.22-4.47-3.65-7.59-4.37-3.32-.82-7.34-.94-11.23-1.05-1.23-.03-2.45-.04-3.68-.04-2.97,0-5.94,.07-8.85,.2-4.7,.23-8.57,.62-12.16,1.76-2.01,.66-3.61,1.45-4.87,2.39-1.44,1.14-2.43,2.33-3.17,3.83-.88,1.77-1.55,3.91-2.16,5.95-.68,2.27-1.38,4.56-2.09,6.84-1.46,4.57-2.94,9.15-4.44,13.75-.27,.79-.52,1.59-.78,2.41-.3,.96-.61,1.93-.95,2.91,3.67-.38,7.44-.7,11.45-.97,19.18-1.22,38.08-.78,54.04-.18,3.65,.15,7.28,.31,10.91,.47Z"/></g><path d="M150.64,194.88c3.45-.14,6.63-1.9,9.36-4.9v.06c0,18.32,16.45,33.21,36.68,33.21s36.09-14.37,36.68-32.23c.95,.21,1.91,.32,2.89,.27,11.2-.47,19.6-18.03,18.74-39.21-.87-21.17-10.66-37.95-21.88-37.47-6.94,.3-12.8,7.15-16.07,17.34l13.58,12.18-16.15,11.7c.12,1.87,.32,3.69,.59,5.49-5.41-2.85-11.7-4.49-18.39-4.49-11.19,0-21.21,4.57-27.94,11.73,.59-4.04,.81-8.37,.63-12.88-.84-21.17-10.66-37.95-21.86-37.46-6.95,.29-12.82,7.13-16.06,17.32l13.55,12.2-16.13,11.68c1.37,20.22,10.9,35.93,21.76,35.46Zm46.04-33.89c17.94,0,32.54,13.04,32.54,29.05s-14.59,29.05-32.54,29.05-32.52-13.04-32.52-29.05,14.59-29.05,32.52-29.05Z"/><path d="M159.29,321.29v.02c12.1,4.01,28.74,4.51,36.3,4.51,2.31,0,3.77-.05,4-.05,24.6-.53,58.39-6.18,79.68-30.09,10.93-12.28,15.74-28.54,12.54-42.44-2.1-9.15-7.85-16.9-16.18-21.82-8.74-5.16-19.23-6.55-28.8-3.81-6.1,1.74-11.62,4.81-16.95,7.78-5.75,3.2-11.7,6.51-18.27,8.04-11.03,2.57-22.79,1.85-33.11-2.01-4.55-1.7-9.03-3.9-13.36-6.02-5.93-2.91-12.05-5.92-18.6-7.79-9.57-2.74-20.07-1.35-28.8,3.81-8.33,4.92-14.08,12.67-16.18,21.82-3.2,13.91,1.61,30.17,12.54,42.44,10.79,12.11,25.99,20.73,45.19,25.61Zm-7.74-25.25c1.33-7.42,12.67-10.19,16.12-10.85,2.12-.41,4.44-.66,6.79-.66,6.81,0,13.93,2.04,17.37,7.95,.93,1.59,1.85,3.23,2.72,4.82l1.07,1.95,1.3-1.8c.84-1.16,1.46-2.39,2.07-3.58,.66-1.29,1.28-2.51,2.13-3.57,.29-.37,.61-.71,.96-1.04,.34-.3,.7-.59,1.06-.85,8.06-5.77,19.83-4.62,27.91-.92,3.81,1.74,7.98,5.11,8.69,8.71,.39,1.98-.26,3.85-2,5.71-6.64,7.12-17.29,9.87-26.83,11.62-11.93,2.18-23.66,1.8-35.85-1.15-7.43-1.8-15.79-4.45-21.4-10.47-1.21-1.3-2.56-3.38-2.11-5.88Z"/><path d="M148.52,90.73c.24,.13,.75,.37,1.46,.37,.87,0,2.02-.35,3.29-1.66,5.31-5.49,12.22-6.84,18.49-3.59,.7,.36,1.65,.76,2.69,.68,1.15-.09,2.06-.69,2.56-1.7,.63-1.26,.5-3.05-.33-4.35-2.16-3.4-5.13-4.8-7.47-5.63-1.14-.41-2.29-.57-3.13-.69-.29-.04-.55-.08-.77-.12l-.16-.03h-.16c-6.46,.26-11.74,2.96-16.13,8.26-.72,.87-1.51,1.94-1.85,3.27-.6,2.3,0,4.34,1.51,5.2Z"/><path d="M216.87,86.52c1.07,.07,1.99-.32,2.69-.68,6.27-3.24,13.18-1.9,18.5,3.59,1.27,1.31,2.42,1.66,3.29,1.66,.71,0,1.22-.23,1.46-.37,1.52-.85,2.11-2.89,1.51-5.2-.34-1.32-1.13-2.39-1.85-3.26-4.39-5.3-9.67-8-16.13-8.25h-.16s-.16,.02-.16,.02c-.22,.04-.48,.08-.77,.12-.84,.12-2,.28-3.14,.69-2.34,.84-5.3,2.23-7.47,5.63-.82,1.3-.96,3.08-.33,4.35,.5,1,1.41,1.61,2.56,1.7Z"/></g></g></svg>