<svg width="596" height="281" viewBox="0 0 596 281" fill="none" xmlns="http://www.w3.org/2000/svg">
<g clip-path="url(#clip0_138_5451)">
<path d="M297.94 15.8203C221.57 15.8203 149.94 29.3103 96.1298 53.8203C44.3398 77.4003 15.8198 108 15.8198 140C15.8198 172 44.3398 202.63 96.1298 226.22C149.91 250.72 221.57 264.22 297.94 264.22C374.31 264.22 445.94 250.73 499.74 226.22C551.53 202.65 580.05 172 580.05 140C580.05 108 551.53 77.4003 499.74 53.8003C446 29.3103 374.3 15.8203 297.94 15.8203Z" fill="white"/>
<path d="M297.94 280.05C219.36 280.05 145.36 266.05 89.58 240.64C31.81 214.33 0 178.59 0 140C0 101.41 31.81 65.72 89.58 39.41C145.36 14 219.36 0 297.94 0C376.52 0 450.51 14 506.3 39.41C564.06 65.72 595.87 101.41 595.87 140.02C595.87 178.63 564.06 214.33 506.3 240.64C450.51 266.05 376.51 280.05 297.94 280.05ZM297.94 15.82C221.57 15.82 149.94 29.31 96.13 53.82C44.34 77.4 15.82 108 15.82 140C15.82 172 44.34 202.63 96.13 226.22C149.91 250.72 221.57 264.22 297.94 264.22C374.31 264.22 445.94 250.73 499.74 226.22C551.53 202.65 580.05 172 580.05 140C580.05 108 551.53 77.4 499.74 53.8C446 29.31 374.3 15.82 297.94 15.82V15.82Z" fill="black"/>
<path d="M195 180.47L194 169.92H165.9L160.35 180.47H132.23L179.91 99.5596H208.74L220.74 180.47H195ZM190.06 124.07L176.8 149.28H192.28L190.06 124.07Z" fill="black"/>
<path d="M303.54 180.47L321.35 99.6797H345L327.19 180.47H303.54Z" fill="black"/>
<path d="M346.35 144.59C346.35 119.59 366.16 99.5898 393.35 99.5898C416.45 99.5898 434.04 114.13 434.04 135.24C434.04 160.24 414.34 180.5 387.14 180.5C363.94 180.47 346.35 165.81 346.35 144.59ZM409.55 137.08C409.55 127.47 402.55 120.43 391.96 120.43C379.53 120.43 370.86 130.99 370.86 142.95C370.86 152.56 377.86 159.6 388.44 159.6C400.88 159.6 409.55 149.05 409.55 137.08Z" fill="black"/>
<path d="M486.65 180.47L467.03 138.47L457.8 180.47H434.12L451.92 99.6797H476.31L494.82 138.84L503.52 99.6797H527.21L509.4 180.47H486.65Z" fill="black"/>
<path d="M114.62 99.5596C89.0999 100.04 68.6699 117.84 68.6699 144.56C68.6699 166.56 86.9999 180.41 109.36 180.47H118.74L131 159.6H110.77C99.9599 159.6 93.1699 151.85 93.1699 142.94C93.1699 131.22 101.97 120.44 114.62 120.44H154.05L166.33 99.5596H114.62Z" fill="black"/>
<path d="M265.58 119.62H305.58L309.96 99.6201H269.42C247.16 99.6201 235.89 114.05 235.89 127.62C235.89 150.49 273.3 149.48 273.3 156.83C273.3 158.18 271.63 160.14 267.36 160.22H232.36L228 180.49H265.24C285.41 180.49 298.32 168.4 298.32 151.96C298.32 129.36 260.8 128.96 260.8 122.79C260.77 121 262.52 119.62 265.58 119.62Z" fill="black"/>
</g>
<defs>
<clipPath id="clip0_138_5451">
<rect width="595.87" height="280.05" fill="white"/>
</clipPath>
</defs>
</svg>
